<svg width="142" height="54" viewBox="0 0 142 54" fill="none" xmlns="http://www.w3.org/2000/svg">
<path d="M9.47083 11.8127C9.47083 15.9372 12.7314 19.2809 16.7503 19.2809H24.0297V4.34766H16.7503C12.7314 4.34766 9.47083 7.6914 9.47083 11.8127Z" fill="#F24E1E"/>
<path d="M24.0297 4.34766V19.2809H31.3091C35.3312 19.2809 38.5886 15.9372 38.5886 11.8127C38.5886 7.6914 35.3312 4.34766 31.3091 4.34766H24.0297Z" fill="#FF7262"/>
<path d="M9.47083 26.7459C9.47083 30.8704 12.7314 34.2109 16.7503 34.2109H24.0297V19.2809H16.7503C12.7314 19.2809 9.47083 22.6182 9.47083 26.7459Z" fill="#A259FF"/>
<path d="M24.0297 26.7459C24.0297 22.6214 27.2902 19.2809 31.3091 19.2809C35.3312 19.2809 38.5886 22.6182 38.5886 26.7459C38.5886 30.8704 35.3312 34.2109 31.3091 34.2109C27.2934 34.2109 24.0297 30.8736 24.0297 26.7459Z" fill="#1ABCFE"/>
<path d="M9.47083 41.6792C9.47083 37.5547 12.7314 34.2109 16.7503 34.2109H24.0297V41.6792C24.0297 45.8005 20.7692 49.1442 16.7503 49.1442C12.7314 49.1442 9.47083 45.8005 9.47083 41.6792Z" fill="#0ACF83"/>
<path d="M64.7283 35.5327V14.1797H79.2126V16.539H67.4161V23.1987H77.2415V25.4684H67.4161V35.5327H64.7283ZM81.6353 35.5327V20.0928H84.0543V35.5327H81.6353ZM81.6353 17.1661V14.1797H84.0543V17.1661H81.6353ZM93.5036 40.6694C89.5018 40.6694 87.2321 39.0567 86.9633 36.3988H89.2031C89.4421 38.1011 91.0547 38.7581 93.4439 38.7581C96.281 38.7581 97.8638 37.4739 97.8638 34.7861V32.606H97.8041C96.6692 34.0694 95.4448 34.9952 93.2348 34.9952C89.233 34.9952 86.4855 31.7997 86.4855 27.3499C86.4855 22.5417 89.5018 19.7344 93.0855 19.7344C95.3253 19.7344 96.7588 20.6005 97.8041 22.0639H97.8638V20.0928H100.283V34.6965C100.283 38.7581 97.595 40.6694 93.5036 40.6694ZM93.3543 32.9644C96.9082 32.9644 98.043 30.4856 98.043 27.2304C98.043 23.8557 96.6095 21.7652 93.3244 21.7652C90.4276 21.7652 88.9642 24.0349 88.9642 27.3797C88.9642 30.7544 90.4873 32.9644 93.3543 32.9644ZM103.567 35.5327V20.0928H105.986V22.3028H106.046C107.001 20.8096 108.644 19.7344 110.585 19.7344C112.467 19.7344 113.96 20.6901 114.617 22.482H114.677C115.662 20.72 117.514 19.7344 119.395 19.7344C122.143 19.7344 124.084 21.4964 124.084 24.6919V35.5327H121.665V24.8114C121.665 22.9001 120.381 21.7652 118.828 21.7652C116.827 21.7652 115.035 23.4974 115.035 25.9164V35.5327H112.616V24.8114C112.616 22.9001 111.541 21.7652 109.958 21.7652C108.077 21.7652 105.986 23.4974 105.986 25.9164V35.5327H103.567ZM139.403 35.682C137.82 35.682 136.984 34.9653 136.745 33.3825H136.715C135.789 34.5771 134.206 35.8314 131.578 35.8314C128.651 35.8314 126.352 34.4576 126.352 31.5309C126.352 27.8874 129.219 27.1408 133.071 26.5435C135.251 26.215 136.775 26.006 136.775 24.3336C136.775 22.6014 135.52 21.6159 133.31 21.6159C130.802 21.6159 129.547 22.691 129.458 25.0204H127.128C127.218 22.034 129.189 19.7942 133.28 19.7942C136.566 19.7942 138.985 21.0186 138.985 24.6919V32.0386C138.985 33.2929 139.283 33.9798 140.627 33.6811H140.717V35.4431C140.418 35.5626 140.03 35.682 139.403 35.682ZM132.116 33.9798C135.341 33.9798 136.804 31.6205 136.804 29.8286V27.2005C135.998 27.7082 134.594 28.0965 133.28 28.3354C130.861 28.7834 128.92 29.2015 128.92 31.4712C128.92 33.5318 130.533 33.9798 132.116 33.9798Z" fill="#8D8C95"/>
</svg>
