<svg width="20" height="20" viewBox="0 0 20 20" fill="none" xmlns="http://www.w3.org/2000/svg">
<g clip-path="url(#clip0_89_7319)">
<path d="M19.9384 12.9499C19.8067 12.6285 19.4965 12.4343 19.1685 12.4339C19.1668 12.4339 19.1652 12.4335 19.1635 12.4335C19.1581 12.4335 19.1535 12.4355 19.1481 12.436C19.0839 12.4376 19.0197 12.4481 18.9559 12.4651C18.9321 12.4714 18.9096 12.4776 18.8867 12.4856C18.875 12.4897 18.863 12.4914 18.8509 12.496C17.805 12.9257 16.6942 13.1437 15.5483 13.1437C10.756 13.1437 6.85694 9.2447 6.85694 4.45238C6.85694 3.30651 7.07453 2.19565 7.5047 1.14982C7.51095 1.13523 7.51303 1.11981 7.51803 1.1048C7.52429 1.08646 7.52971 1.06812 7.53471 1.04895C7.55346 0.98017 7.56514 0.910976 7.56597 0.841781C7.56597 0.838864 7.56722 0.835946 7.56722 0.832611C7.56722 0.831777 7.5668 0.830527 7.5668 0.829693C7.5668 0.779673 7.56097 0.730487 7.5518 0.682135C7.54971 0.671714 7.54805 0.661293 7.54596 0.650872C7.53512 0.602937 7.52137 0.555418 7.50219 0.5104C7.49469 0.492893 7.48427 0.477887 7.47593 0.461214C7.38882 0.287395 7.24459 0.141087 7.05035 0.0614719C6.82318 -0.0314816 6.58016 -0.0148084 6.37508 0.0831472C6.373 0.0839808 6.3705 0.0843977 6.36841 0.0856482C5.1225 0.597935 3.99789 1.3499 3.02584 2.32195C-1.00868 6.36147 -1.00868 12.9341 3.02625 16.9744C5.04622 18.9919 7.69894 20.0002 10.3521 20.0002C13.0052 20.0002 15.6583 18.9915 17.6787 16.974C18.6474 16.0049 19.3982 14.884 19.9104 13.6423C19.913 13.6377 19.9138 13.6323 19.9159 13.6273C19.9396 13.5777 19.9588 13.526 19.9726 13.4722C19.9734 13.468 19.9751 13.4643 19.9763 13.4601C20.0159 13.2959 20.0076 13.1183 19.9384 12.9499ZM16.5008 15.7952C13.1107 19.1803 7.59515 19.1803 4.20589 15.7952C0.820378 12.4055 0.820377 6.89001 4.20547 3.50075C4.56728 3.13894 4.95827 2.82007 5.36801 2.53287C5.25047 3.16145 5.18961 3.80212 5.18961 4.4528C5.18961 10.1646 9.83645 14.8115 15.5483 14.8115C16.1986 14.8115 16.8396 14.7506 17.4682 14.6331C17.1806 15.0424 16.8626 15.4334 16.5008 15.7952Z" fill="white"/>
</g>
<defs>
<clipPath id="clip0_89_7319">
<rect width="20" height="20.0002" fill="white"/>
</clipPath>
</defs>
</svg>
