<svg width="60" height="60" viewBox="0 0 60 60" fill="none" xmlns="http://www.w3.org/2000/svg">
<path fill-rule="evenodd" clip-rule="evenodd" d="M30 18.75C23.7868 18.75 18.75 23.7868 18.75 30C18.75 36.2133 23.7868 41.25 30 41.25C36.2133 41.25 41.25 36.2133 41.25 30C41.25 23.7868 36.2133 18.75 30 18.75ZM15 30C15 21.7157 21.7157 15 30 15C38.2842 15 45 21.7157 45 30C45 38.2842 38.2842 45 30 45C21.7157 45 15 38.2842 15 30Z" fill="black"/>
<path fill-rule="evenodd" clip-rule="evenodd" d="M31.875 7.5V13.125H28.125V7.5H31.875Z" fill="black"/>
<path fill-rule="evenodd" clip-rule="evenodd" d="M52.5 31.875H46.875V28.125H52.5V31.875Z" fill="black"/>
<path fill-rule="evenodd" clip-rule="evenodd" d="M47.2357 15.4159L43.2582 19.3934L40.6064 16.7418L44.5839 12.7643L47.2357 15.4159Z" fill="black"/>
<path fill-rule="evenodd" clip-rule="evenodd" d="M44.5839 47.2361L40.6064 43.2586L43.2582 40.6071L47.2357 44.5843L44.5839 47.2361Z" fill="black"/>
<path fill-rule="evenodd" clip-rule="evenodd" d="M31.875 46.875V52.5H28.125V46.875H31.875Z" fill="black"/>
<path fill-rule="evenodd" clip-rule="evenodd" d="M13.125 31.875H7.5V28.125H13.125V31.875Z" fill="black"/>
<path fill-rule="evenodd" clip-rule="evenodd" d="M19.3933 43.2582L15.4158 47.2357L12.7642 44.5842L16.7416 40.6067L19.3933 43.2582Z" fill="black"/>
<path fill-rule="evenodd" clip-rule="evenodd" d="M16.7416 19.3937L12.7642 15.4162L15.4158 12.7645L19.3933 16.742L16.7416 19.3937Z" fill="black"/>
</svg>
