<svg width="216" height="54" viewBox="0 0 216 54" fill="none" xmlns="http://www.w3.org/2000/svg">
<g clip-path="url(#clip0_61_209)">
<path d="M0.272598 26.5326V0.93457H51.4687V52.1307H0.272598" fill="#007ACC"/>
<path d="M11.4973 26.6222V28.7084H18.1528V47.651H22.8757V28.7084H29.5312V26.6606C29.5312 25.5087 29.5312 24.5744 29.48 24.5488C29.48 24.5104 25.4227 24.4976 20.4951 24.4976L11.5357 24.536V26.635L11.4973 26.6222ZM41.4087 24.4848C42.7142 24.7919 43.7125 25.3807 44.6084 26.315C45.082 26.827 45.7859 27.7229 45.8371 27.9533C45.8371 28.0301 43.6229 29.5276 42.279 30.3595C42.2278 30.3979 42.023 30.1803 41.8182 29.8476C41.1527 28.9004 40.4743 28.4909 39.412 28.4141C37.8761 28.3117 36.8522 29.118 36.8522 30.4619C36.8522 30.8715 36.929 31.1019 37.0826 31.4346C37.4282 32.1386 38.0681 32.561 40.052 33.4313C43.7125 35.0056 45.2996 36.0423 46.2595 37.527C47.3474 39.1908 47.5906 41.8019 46.8611 43.7601C46.0419 45.8975 44.0453 47.3438 41.1911 47.8174C40.2952 47.971 38.2473 47.9454 37.2874 47.779C35.2395 47.395 33.2813 46.3711 32.0782 45.0528C31.6046 44.5408 30.6959 43.1713 30.7471 43.0818L31.2334 42.7746L33.1533 41.6611L34.5996 40.8163L34.9324 41.2643C35.3547 41.9298 36.3019 42.8258 36.8522 43.1329C38.5161 43.9905 40.7431 43.8753 41.8438 42.877C42.3174 42.4418 42.5222 41.981 42.5222 41.3411C42.5222 40.7523 42.4326 40.4835 42.1382 40.0356C41.7286 39.4724 40.9095 39.0117 38.6057 37.9877C35.9563 36.8614 34.83 36.1447 33.7805 35.044C33.1789 34.3784 32.6285 33.3417 32.3726 32.4842C32.1806 31.7418 32.1166 29.9244 32.2958 29.1948C32.8461 26.635 34.7788 24.8431 37.5434 24.3312C38.4393 24.152 40.5511 24.2288 41.4343 24.4592L41.4087 24.4848Z" fill="#8D8C95"/>
</g>
<path d="M68.4206 16.539V14.1797H85.3238V16.539H78.2161V35.5327H75.5283V16.539H68.4206ZM87.5051 40.6395C86.5793 40.6395 85.982 40.5798 85.325 40.311V38.1608H85.4445C85.773 38.34 86.2807 38.4893 87.087 38.4893C88.1024 38.4893 88.7893 38.1011 89.3866 36.6078L89.9839 35.0847L83.9512 20.0928H86.5793L90.2228 29.7092C90.7006 30.9933 91.268 32.7255 91.268 32.7255H91.3278C91.3278 32.7255 91.8653 30.9933 92.3431 29.7092L95.8671 20.0928H98.4355L91.8354 36.787C90.5811 39.9825 89.3866 40.6395 87.5051 40.6395ZM100.145 40.4902V20.0928H102.564V22.2729H102.624C103.789 20.6901 105.342 19.7344 107.582 19.7344C111.494 19.7344 114.212 22.7209 114.212 27.8576C114.212 32.8151 111.673 35.9807 107.492 35.9807C105.402 35.9807 103.908 35.3535 102.624 33.711H102.564V40.4902H100.145ZM107.313 33.9499C110.269 33.9499 111.733 31.3816 111.733 27.8874C111.733 24.4232 110.269 21.7951 107.343 21.7951C103.968 21.7951 102.415 24.5426 102.415 27.8874C102.415 31.2322 103.759 33.9499 107.313 33.9499ZM123.223 35.9508C118.505 35.9508 115.757 32.3074 115.757 27.8277C115.757 23.348 118.684 19.7046 123.074 19.7046C127.703 19.7046 130.182 23.2883 130.182 28.3951H118.236C118.415 31.5309 120.117 33.92 123.223 33.92C125.463 33.92 126.956 32.8449 127.494 30.7544H129.853C129.137 34.0694 126.718 35.9508 123.223 35.9508ZM123.074 21.6159C120.207 21.6159 118.654 23.7661 118.296 26.5734H127.584C127.434 23.4974 125.851 21.6159 123.074 21.6159ZM140.67 35.9508C134.668 35.9508 131.801 32.606 131.562 28.3055H134.19C134.548 31.9191 136.758 33.8006 140.79 33.8006C143.746 33.8006 145.867 32.4567 145.867 29.7988C145.867 26.872 143.298 26.1852 139.476 25.349C135.713 24.5128 132.487 23.4376 132.487 19.4059C132.487 15.8819 135.414 13.7616 139.744 13.7616C145.09 13.7616 147.3 16.4792 147.838 20.4213H145.299C144.911 17.3752 142.94 15.8521 139.804 15.8521C136.907 15.8521 134.996 17.0765 134.996 19.2865C134.996 21.7055 137.385 22.4222 140.581 23.0494C144.732 23.8856 148.525 24.901 148.525 29.7092C148.525 33.711 145.269 35.9508 140.67 35.9508ZM157.842 35.9508C153.242 35.9508 150.375 32.3074 150.375 27.8277C150.375 23.348 153.242 19.7046 157.842 19.7046C161.485 19.7046 163.904 21.7951 164.442 25.0802H161.993C161.634 22.9897 160.171 21.7055 157.842 21.7055C154.557 21.7055 152.854 24.4232 152.854 27.8277C152.854 31.2322 154.557 33.92 157.842 33.92C160.35 33.92 161.843 32.4865 162.052 30.0974H164.442C164.113 33.8006 161.694 35.9508 157.842 35.9508ZM169.147 20.0928V22.6612H169.207C170.132 21.1679 171.745 19.9136 173.806 19.9136C174.254 19.9136 174.493 19.9734 174.791 20.0928V22.4222H174.702C174.343 22.3028 174.104 22.2729 173.627 22.2729C171.237 22.2729 169.147 24.0648 169.147 26.9616V35.5327H166.728V20.0928H169.147ZM176.965 35.5327V20.0928H179.384V35.5327H176.965ZM176.965 17.1661V14.1797H179.384V17.1661H176.965ZM182.681 40.4902V20.0928H185.1V22.2729H185.16C186.324 20.6901 187.877 19.7344 190.117 19.7344C194.029 19.7344 196.747 22.7209 196.747 27.8576C196.747 32.8151 194.208 35.9807 190.027 35.9807C187.937 35.9807 186.444 35.3535 185.16 33.711H185.1V40.4902H182.681ZM189.848 33.9499C192.805 33.9499 194.268 31.3816 194.268 27.8874C194.268 24.4232 192.805 21.7951 189.878 21.7951C186.503 21.7951 184.951 24.5426 184.951 27.8874C184.951 31.2322 186.294 33.9499 189.848 33.9499ZM197.736 22.0639V20.0928H199.976V15.2249H202.395V20.0928H205.381V22.0639H202.395V32.0983C202.395 33.1734 202.962 33.5318 203.948 33.5318C204.425 33.5318 204.963 33.4123 205.232 33.3227H205.321V35.4133C204.754 35.5327 204.097 35.6223 203.38 35.6223C201.409 35.6223 199.976 34.816 199.976 32.6359V22.0639H197.736Z" fill="#8D8C95"/>
<defs>
<clipPath id="clip0_61_209">
<rect width="51.1961" height="51.1961" fill="white" transform="translate(0.272598 0.93457)"/>
</clipPath>
</defs>
</svg>
