<svg width="159" height="62" viewBox="0 0 159 62" fill="none" xmlns="http://www.w3.org/2000/svg">
<path d="M8.92188 54.9062L4 1H56.8516L52.0469 54.9062L30.4844 61" fill="#264DE4"/>
<path d="M30.4258 5.33594V56.3125L48.1345 51.5078L52.2943 5.33594" fill="#2965F1"/>
<path d="M13.549 12.0156H30.4258V18.5781H14.1432M14.7375 25.375H30.4258V32.0547H15.3317M15.6883 35.3359H22.3439L22.8193 40.6094L30.4258 42.6016V49.5156L16.5202 45.7656" fill="#EBEBEB"/>
<path d="M30.4258 25.375V32.0547H38.6265L37.7945 40.6094L30.4258 42.6016V49.5156L44.0936 45.7656L47.1837 12.0156H30.4258V18.5781H39.9338L39.2802 25.375H30.4258Z" fill="white"/>
<path d="M93.125 42.49C86.02 42.49 81.4 37.065 81.4 29.47C81.4 22.12 85.81 16.415 93.265 16.415C99.11 16.415 102.645 19.775 103.31 24.395H100.23C99.635 21.28 97.15 19.145 93.195 19.145C87.7 19.145 84.62 23.59 84.62 29.47C84.62 35.595 88.015 39.725 93.23 39.725C97.955 39.725 100.195 36.505 100.51 32.83H103.625C103.59 35.315 102.4 38.115 100.615 39.865C98.865 41.58 96.31 42.49 93.125 42.49ZM116.259 42.49C109.224 42.49 105.864 38.57 105.584 33.53H108.664C109.084 37.765 111.674 39.97 116.399 39.97C119.864 39.97 122.349 38.395 122.349 35.28C122.349 31.85 119.339 31.045 114.859 30.065C110.449 29.085 106.669 27.825 106.669 23.1C106.669 18.97 110.099 16.485 115.174 16.485C121.439 16.485 124.029 19.67 124.659 24.29H121.684C121.229 20.72 118.919 18.935 115.244 18.935C111.849 18.935 109.609 20.37 109.609 22.96C109.609 25.795 112.409 26.635 116.154 27.37C121.019 28.35 125.464 29.54 125.464 35.175C125.464 39.865 121.649 42.49 116.259 42.49ZM138.169 42.49C131.134 42.49 127.774 38.57 127.494 33.53H130.574C130.994 37.765 133.584 39.97 138.309 39.97C141.774 39.97 144.259 38.395 144.259 35.28C144.259 31.85 141.249 31.045 136.769 30.065C132.359 29.085 128.579 27.825 128.579 23.1C128.579 18.97 132.009 16.485 137.084 16.485C143.349 16.485 145.939 19.67 146.569 24.29H143.594C143.139 20.72 140.829 18.935 137.154 18.935C133.759 18.935 131.519 20.37 131.519 22.96C131.519 25.795 134.319 26.635 138.064 27.37C142.929 28.35 147.374 29.54 147.374 35.175C147.374 39.865 143.559 42.49 138.169 42.49Z" fill="white"/>
</svg>
