<svg width="154" height="62" viewBox="0 0 154 62" fill="none" xmlns="http://www.w3.org/2000/svg">
<path d="M55.5136 28.6618L32.5917 5.73998C32.2782 5.42534 31.9056 5.17569 31.4954 5.00534C31.0851 4.835 30.6453 4.74731 30.2011 4.74731C29.7569 4.74731 29.3171 4.835 28.9068 5.00534C28.4966 5.17569 28.124 5.42534 27.8105 5.73998L23.0499 10.5006L29.0874 16.5381C29.7993 16.2958 30.565 16.2584 31.2972 16.4301C32.0294 16.6018 32.6986 16.9757 33.2286 17.5093C33.7586 18.0428 34.1281 18.7145 34.295 19.4478C34.4618 20.1811 34.4193 20.9465 34.1724 21.6569L39.9849 27.4693C40.8537 27.1709 41.7986 27.1791 42.662 27.4927C43.5255 27.8064 44.2555 28.4064 44.7302 29.1929C45.205 29.9793 45.396 30.9047 45.2713 31.8149C45.1466 32.7251 44.7137 33.565 44.0449 34.1948C43.3761 34.8246 42.5117 35.2062 41.5957 35.276C40.6796 35.3458 39.7674 35.0996 39.0108 34.5784C38.2543 34.0573 37.6992 33.2926 37.438 32.4119C37.1768 31.5311 37.2254 30.5874 37.5755 29.7381L32.1474 24.31V38.5919C32.9696 38.9993 33.6275 39.6761 34.0114 40.5096C34.3953 41.3431 34.482 42.283 34.2571 43.1726C34.0322 44.0623 33.5093 44.8481 32.7755 45.3991C32.0417 45.9501 31.1412 46.233 30.2241 46.2008C29.307 46.1686 28.4287 45.8231 27.7353 45.222C27.042 44.6208 26.5756 43.8002 26.4137 42.897C26.2518 41.9937 26.4043 41.0622 26.8458 40.2577C27.2873 39.4532 27.991 38.8243 28.8399 38.4756V24.0625C28.3488 23.861 27.9024 23.5643 27.5265 23.1896C27.1506 22.8149 26.8525 22.3694 26.6494 21.879C26.4464 21.3886 26.3424 20.8628 26.3434 20.332C26.3445 19.8012 26.4505 19.2759 26.6555 18.7862L20.7117 12.8387L4.9936 28.5625C4.67868 28.8761 4.42879 29.2488 4.25828 29.6592C4.08777 30.0696 4 30.5096 4 30.954C4 31.3985 4.08777 31.8385 4.25828 32.2489C4.42879 32.6593 4.67868 33.032 4.9936 33.3456L27.9155 56.26C28.229 56.5746 28.6016 56.8243 29.0118 56.9946C29.4221 57.165 29.8619 57.2526 30.3061 57.2526C30.7503 57.2526 31.1901 57.165 31.6004 56.9946C32.0106 56.8243 32.3832 56.5746 32.6967 56.26L55.5136 33.4375C55.8285 33.1239 56.0784 32.7512 56.2489 32.3408C56.4194 31.9304 56.5072 31.4903 56.5072 31.0459C56.5072 30.6015 56.4194 30.1614 56.2489 29.751C56.0784 29.3406 55.8285 28.9679 55.5136 28.6544" fill="#DD4C35"/>
<path d="M22.7963 10.3279L28.8338 16.4162C29.5457 16.1719 30.3114 16.1342 31.0436 16.3073C31.7758 16.4805 32.445 16.8575 32.975 17.3956C33.505 17.9336 33.8745 18.6109 34.0414 19.3504C34.2082 20.0899 34.1657 20.8618 33.9188 21.5781L39.7313 27.4395C40.6001 27.1386 41.545 27.1469 42.4084 27.4631C43.2719 27.7794 44.0019 28.3845 44.4766 29.1776C44.9514 29.9707 45.1424 30.9039 45.0177 31.8217C44.893 32.7395 44.4602 33.5866 43.7913 34.2217C43.1225 34.8567 42.2581 35.2415 41.3421 35.3119C40.4261 35.3823 39.5138 35.1341 38.7572 34.6085C38.0007 34.083 37.4456 33.3119 37.1844 32.4237C36.9232 31.5355 36.9718 30.5839 37.3219 29.7274L31.8938 24.2536V38.6557C32.716 39.0666 33.3739 39.7491 33.7578 40.5896C34.1417 41.4301 34.2284 42.3779 34.0035 43.2751C33.7786 44.1723 33.2557 44.9647 32.5219 45.5203C31.7881 46.0759 30.8876 46.3613 29.9705 46.3288C29.0534 46.2963 28.1751 45.9479 27.4817 45.3417C26.7884 44.7354 26.322 43.908 26.1601 42.9971C25.9982 42.0862 26.1507 41.1469 26.5922 40.3356C27.0337 39.5244 27.7374 38.8901 28.5863 38.5385V24.004C28.0952 23.8008 27.6488 23.5016 27.2729 23.1238C26.897 22.7459 26.5989 22.2967 26.3958 21.8021C26.1928 21.3076 26.0888 20.7774 26.0898 20.2421C26.0909 19.7068 26.1969 19.1771 26.4019 18.6833L20.4581 12.6857" fill="white"/>
<path d="M109.945 42L109.035 38.71H108.965C107.145 41.265 104.45 42.525 101.16 42.525C94.125 42.525 89.4 37.17 89.4 29.575C89.4 22.225 93.565 16.45 101.44 16.45C107.25 16.45 110.82 19.6 111.625 24.5H108.37C107.67 21.175 105.325 19.18 101.37 19.18C95.35 19.18 92.62 23.695 92.62 29.575C92.62 35.7 96.19 39.795 101.265 39.795C106.41 39.795 108.825 36.295 108.825 32.095V31.5H101.3V28.77H111.975V42H109.945ZM116.392 42V16.975H119.542V42H116.392ZM122.71 19.74V16.975H142.52V19.74H134.19V42H131.04V19.74H122.71Z" fill="#8D8C95"/>
</svg>
