<svg width="206" height="62" viewBox="0 0 206 62" fill="none" xmlns="http://www.w3.org/2000/svg">
<g clip-path="url(#clip0_60_193)">
<path fill-rule="evenodd" clip-rule="evenodd" d="M30 1C46.569 1 60 14.7698 60 31.7588C60 45.3458 51.414 56.8719 39.501 60.9429C37.98 61.2459 37.44 60.2853 37.44 59.4663C37.44 58.4523 37.476 55.1404 37.476 51.0244C37.476 48.1564 36.516 46.2846 35.439 45.3306C42.12 44.5686 49.14 41.9673 49.14 30.1533C49.14 26.7933 47.976 24.0515 46.05 21.8975C46.362 21.1205 47.391 17.9919 45.756 13.7559C45.756 13.7559 43.242 12.9317 37.515 16.9097C35.118 16.2287 32.55 15.886 30 15.874C27.45 15.886 24.885 16.2287 22.491 16.9097C16.758 12.9317 14.238 13.7559 14.238 13.7559C12.609 17.9919 13.638 21.1205 13.947 21.8975C12.03 24.0515 10.857 26.7933 10.857 30.1533C10.857 41.9373 17.862 44.5785 24.525 45.3555C23.667 46.1235 22.89 47.4783 22.62 49.4673C20.91 50.2533 16.566 51.6136 13.89 46.9126C13.89 46.9126 12.303 43.9572 9.291 43.7412C9.291 43.7412 6.366 43.7024 9.087 45.6104C9.087 45.6104 11.052 46.5554 12.417 50.1104C12.417 50.1104 14.178 55.6002 22.524 53.7402C22.539 56.3112 22.566 58.7343 22.566 59.4663C22.566 60.2793 22.014 61.2308 20.517 60.9458C8.59499 56.8808 0 45.3488 0 31.7588C0 14.7698 13.434 1 30 1Z" fill="white"/>
</g>
<path d="M111.945 42L111.035 38.71H110.965C109.145 41.265 106.45 42.525 103.16 42.525C96.125 42.525 91.4 37.17 91.4 29.575C91.4 22.225 95.565 16.45 103.44 16.45C109.25 16.45 112.82 19.6 113.625 24.5H110.37C109.67 21.175 107.325 19.18 103.37 19.18C97.35 19.18 94.62 23.695 94.62 29.575C94.62 35.7 98.19 39.795 103.265 39.795C108.41 39.795 110.825 36.295 110.825 32.095V31.5H103.3V28.77H113.975V42H111.945ZM117.902 42V23.905H120.737V42H117.902ZM117.902 20.475V16.975H120.737V20.475H117.902ZM123.446 26.215V23.905H126.071V18.2H128.906V23.905H132.406V26.215H128.906V37.975C128.906 39.235 129.571 39.655 130.726 39.655C131.286 39.655 131.916 39.515 132.231 39.41H132.336V41.86C131.671 42 130.901 42.105 130.061 42.105C127.751 42.105 126.071 41.16 126.071 38.605V26.215H123.446ZM135.753 42V16.975H138.903V27.615H152.273V16.975H155.423V42H152.273V30.17H138.903V42H135.753ZM174.053 42H171.218V39.515H171.148C169.853 41.265 168.313 42.42 165.688 42.42C161.978 42.42 159.598 40.18 159.598 36.435V23.905H162.433V36.365C162.433 38.71 163.938 40.075 166.493 40.075C169.363 40.075 171.218 37.905 171.218 35.035V23.905H174.053V42ZM186.497 42.525C184.047 42.525 182.262 41.65 180.792 39.62H180.722V42H177.887V16.975H180.722V26.495H180.792C182.157 24.64 183.977 23.485 186.602 23.485C191.187 23.485 194.302 26.985 194.302 33.005C194.302 38.815 191.397 42.525 186.497 42.525ZM186.287 40.145C189.752 40.145 191.397 37.135 191.397 33.04C191.397 28.98 189.752 25.9 186.322 25.9C182.367 25.9 180.547 29.12 180.547 33.04C180.547 37.1 182.437 40.145 186.287 40.145Z" fill="white"/>
<defs>
<clipPath id="clip0_60_193">
<rect width="60" height="60" fill="white" transform="translate(0 1)"/>
</clipPath>
</defs>
</svg>
