<svg width="120" height="45" viewBox="0 0 120 45" fill="none" xmlns="http://www.w3.org/2000/svg">
<g clip-path="url(#clip0_61_203)">
<path d="M34.8916 21.0706C34.8916 21.0706 34.8916 21.0827 34.8916 21.09L33.3181 27.9903C33.2332 28.3807 32.8477 28.6668 32.4017 28.6668H30.5032C30.3626 28.6668 30.2364 28.7613 30.1976 28.8971C28.4447 34.9076 26.071 39.0392 22.9361 41.5195C20.2689 43.6314 16.9812 44.6158 12.5903 44.6158C8.64308 44.6158 5.9833 43.3331 3.72602 40.8019C0.743772 37.4559 -0.490343 31.9788 0.25643 25.3791C1.6045 12.9894 7.96178 0.488272 20.2084 0.488272C23.9326 0.454328 26.8566 1.6157 28.8909 3.93361C31.0414 6.38487 32.1349 10.0775 32.1397 14.9097C32.1324 15.3486 31.7713 15.7026 31.3372 15.7026H22.3662C22.0487 15.7026 21.765 15.414 21.7698 15.0964C21.697 11.7553 20.7151 10.126 18.7657 10.126C15.3277 10.126 13.2983 14.8443 12.2218 17.4604C10.7185 21.1142 9.95478 25.0809 10.1051 29.0329C10.1754 30.8732 10.4688 33.4603 12.1975 34.5319C13.7299 35.4823 15.9169 34.8519 17.2407 33.7997C18.5645 32.7473 19.6289 30.9266 20.0774 29.2657C20.1404 29.0354 20.1454 28.856 20.0847 28.7759C20.0217 28.6935 19.8471 28.6741 19.7138 28.6741H17.4104C17.1631 28.6741 16.9182 28.5602 16.7703 28.3758C16.6466 28.2207 16.5982 28.0291 16.6418 27.8401L18.2178 20.9275C18.2954 20.5737 18.613 20.3069 19.0033 20.2585V20.2414H34.1206C34.1571 20.2414 34.1934 20.2414 34.2274 20.2487C34.6202 20.2996 34.8966 20.6682 34.8893 21.0706H34.8916Z" fill="#0BDA51"/>
<path d="M60.922 13.1398C60.9147 13.5714 60.5534 13.9253 60.1195 13.9253H51.8565C51.3158 13.9253 50.8623 13.4816 50.8623 12.941C50.8623 10.5042 50.0283 9.31863 48.3215 9.31863C46.6145 9.31863 45.5137 10.3782 45.4822 12.2281C45.4459 14.2915 46.5999 16.1657 49.8877 19.3879C54.2156 23.4903 55.9491 27.1248 55.8667 31.9279C55.7309 39.6963 50.5035 44.7176 42.5509 44.7176C38.4896 44.7176 35.3862 43.6193 33.3229 41.4542C31.2281 39.2549 30.2679 36.0278 30.4692 31.8624C30.4788 31.4308 30.8376 31.0793 31.2717 31.0793H39.8184C40.0512 31.0793 40.2815 31.1932 40.4367 31.3872C40.57 31.5545 40.6257 31.7606 40.5919 31.9546C40.4972 33.4578 40.7567 34.5803 41.341 35.2011C41.7169 35.6035 42.2382 35.8073 42.8903 35.8073C44.4688 35.8073 45.395 34.6798 45.4288 32.7158C45.458 31.0186 44.9269 29.53 42.0321 26.5211C38.2933 22.8284 34.94 19.0146 35.0443 13.0161C35.105 9.53927 36.4724 6.35821 38.8947 4.05969C41.4549 1.63026 44.9586 0.347656 49.0245 0.347656C53.0979 0.376751 56.1844 1.55025 58.1991 3.83663C60.1073 6.00421 61.0263 9.13437 60.9245 13.1398H60.922Z" fill="#0BDA51"/>
<path d="M86.5355 43.2556L86.5887 1.94314C86.596 1.50914 86.2493 1.15515 85.8153 1.15515H73.0257C72.5964 1.15515 72.4074 1.52854 72.2837 1.77584L53.7672 43.0036V43.0109C53.7672 43.0109 53.7622 43.018 53.7599 43.0205C53.5538 43.5272 53.9441 44.0704 54.4873 44.0704H63.4266C63.9091 44.0704 64.2293 43.9225 64.3868 43.6146L66.1616 39.3036C66.3798 38.7289 66.4211 38.6757 67.0417 38.6757H75.5836C76.1775 38.6757 76.1898 38.6878 76.18 39.2746L75.9885 43.2823C75.9812 43.7164 76.3279 44.0704 76.762 44.0704H85.7935C86.0238 44.0704 86.2396 43.9734 86.3826 43.8013C86.5111 43.6484 86.5645 43.4546 86.5355 43.2556ZM70.7125 29.4621C70.6301 29.4621 70.5646 29.4598 70.5114 29.455C70.3779 29.4429 70.2882 29.3142 70.3222 29.1834C70.3391 29.1227 70.3635 29.0428 70.3998 28.9433L76.8056 12.929C76.8613 12.7714 76.9316 12.6162 77.0044 12.4659C77.1087 12.2501 77.2347 12.2355 77.2735 12.3955C77.3075 12.5289 76.5388 28.839 76.5388 28.839C76.4783 29.45 76.4516 29.4744 75.8552 29.5253L70.7198 29.4646H70.7077L70.7125 29.4621Z" fill="#0BDA51"/>
<path d="M104.754 1.15499H97.9647C97.6059 1.15499 97.2033 1.34654 97.1088 1.77811C97.1088 1.77811 87.6601 43.2289 87.6601 43.2338C87.619 43.4253 87.6626 43.6144 87.7886 43.772C87.9365 43.9562 88.1814 44.0703 88.4288 44.0703H96.9148C97.3706 44.0703 97.6835 43.8448 97.7682 43.452C97.7682 43.452 98.7962 38.7676 98.7987 38.7532C98.8715 38.3871 98.7453 38.1034 98.4205 37.9311C98.2678 37.8512 98.1149 37.7711 97.9647 37.6912L96.493 36.9177L95.0284 36.1467C94.8394 36.0472 94.6502 35.9479 94.4635 35.8484C94.369 35.8 94.3108 35.703 94.3133 35.5964C94.3156 35.4387 94.4466 35.3102 94.6041 35.3102L99.2545 35.3321C100.646 35.3392 102.038 35.2399 103.406 34.9854C113.036 33.1887 119.432 25.3936 119.616 14.7885C119.774 5.73747 114.774 1.15015 104.761 1.15015L104.754 1.15499ZM102.443 25.8252H102.261C101.854 25.8252 101.781 25.7791 101.769 25.7645C101.762 25.7549 104.45 13.8259 104.453 13.8089C104.521 13.4646 104.518 13.2658 104.307 13.1494C104.038 12.9991 100.113 10.9067 100.113 10.9067C100.018 10.8558 99.9625 10.7588 99.965 10.6521C99.9673 10.4969 100.096 10.3684 100.254 10.3684H106.461C108.393 10.429 109.469 12.1747 109.419 15.157C109.329 20.3214 106.899 25.6433 102.443 25.8252Z" fill="#0BDA51"/>
<path d="M111.659 44.0703C113.056 44.0703 114.149 42.9962 114.149 41.5487C114.149 40.1012 113.056 39.0271 111.659 39.0271C110.263 39.0271 109.157 40.1012 109.157 41.5487C109.157 42.9962 110.26 44.0703 111.659 44.0703ZM109.751 41.5389C109.751 40.3098 110.481 39.5048 111.659 39.5048C112.837 39.5048 113.555 40.3073 113.555 41.5389C113.555 42.7707 112.837 43.5805 111.659 43.5805C110.481 43.5805 109.751 42.778 109.751 41.5389ZM110.566 42.8919H111.358V41.9221H111.589C112.183 41.9221 111.923 42.778 112.069 42.8919H112.891V42.8506C112.736 42.8095 112.985 41.7354 112.297 41.6215V41.6092C112.631 41.5389 112.847 41.2965 112.847 40.9329C112.847 40.4116 112.471 40.1302 111.865 40.1302H110.561V42.8919H110.566ZM111.358 41.3378V40.6903H111.63C111.902 40.6903 112.057 40.7752 112.057 41.0128C112.057 41.231 111.902 41.3353 111.63 41.3353H111.358V41.3378Z" fill="#0BDA51"/>
</g>
<defs>
<clipPath id="clip0_61_203">
<rect width="119.664" height="44.37" fill="white" transform="translate(0.0437012 0.347656)"/>
</clipPath>
</defs>
</svg>
