<svg width="184" height="62" viewBox="0 0 184 62" fill="none" xmlns="http://www.w3.org/2000/svg">
<path d="M8.80469 54.9062L4 1H56.8516L52.0469 54.9062L30.3672 61" fill="#E34F26"/>
<path d="M30.4258 56.3125L48.1345 51.5078L52.2943 5.33594H30.4258" fill="#EF652A"/>
<path d="M30.4258 25.375H21.5119L20.9177 18.5781H30.4258V12.0156H13.549L15.3317 32.0547H30.4258V25.375ZM30.3069 42.6016L22.8193 40.6094L22.3439 35.3359H15.6883L16.5202 45.7656L30.3069 49.5156V42.6016Z" fill="#EBEBEB"/>
<path d="M30.3069 25.375V32.0547H38.6264L37.7945 40.6094L30.3069 42.6016V49.5156L44.0936 45.7656L45.9952 25.375H30.3069ZM30.3069 12.0156V18.5781H46.5894L47.1837 12.0156H30.3069Z" fill="white"/>
<path d="M81.345 42V16.975H84.495V27.615H97.865V16.975H101.015V42H97.865V30.17H84.495V42H81.345ZM104.14 19.74V16.975H123.95V19.74H115.62V42H112.47V19.74H104.14ZM127.077 42V16.975H131.102L139.222 37.765H139.292L147.342 16.975H151.437V42H148.427V21.42H148.357C148.357 21.42 147.692 23.38 147.237 24.57L140.377 42H137.962L131.102 24.57C130.612 23.31 129.982 21.42 129.982 21.42H129.912V42H127.077ZM156.13 42V16.975H159.28V39.095H172.405V42H156.13Z" fill="white"/>
</svg>
