<svg width="250" height="62" viewBox="0 0 250 62" fill="none" xmlns="http://www.w3.org/2000/svg">
<g clip-path="url(#clip0_60_192)">
<path d="M0 1H60V61H0V1Z" fill="#F7DF1E"/>
<path d="M15.7762 51.1405L20.3678 48.3617C21.2536 49.9323 22.0595 51.2611 23.9923 51.2611C25.8451 51.2611 27.0132 50.5364 27.0132 47.7173V28.5459H32.6516V47.797C32.6516 53.637 29.2284 56.2952 24.234 56.2952C19.7235 56.2952 17.1052 53.9591 15.7761 51.14" fill="black"/>
<path d="M35.7144 50.5361L40.3054 47.878C41.514 49.8517 43.0847 51.3015 45.8636 51.3015C48.1999 51.3015 49.6897 50.1334 49.6897 48.5223C49.6897 46.5891 48.1593 45.9043 45.5816 44.777L44.1724 44.1724C40.1043 42.4409 37.4057 40.2661 37.4057 35.6745C37.4057 31.4456 40.6277 28.2234 45.6624 28.2234C49.2469 28.2234 51.8245 29.4721 53.677 32.7344L49.2869 35.5536C48.3203 33.8219 47.2734 33.1373 45.6625 33.1373C44.0111 33.1373 42.9639 34.1844 42.9639 35.5536C42.9639 37.2452 44.0111 37.9301 46.4274 38.9773L47.8369 39.5814C52.6298 41.6356 55.3284 43.7297 55.3284 48.4418C55.3284 53.5168 51.3411 56.2956 45.9845 56.2956C40.7487 56.2956 37.3654 53.7986 35.7144 50.5361Z" fill="black"/>
</g>
<path d="M91.12 42.49C86.605 42.49 83.77 40.04 83.77 34.23V33.88H86.885V34.125C86.885 38.57 88.285 39.9 91.225 39.9C93.745 39.9 95.215 38.605 95.215 35.455V16.975H98.365V35.665C98.365 39.655 95.95 42.49 91.12 42.49ZM116.532 42.175C114.677 42.175 113.697 41.335 113.417 39.48H113.382C112.297 40.88 110.442 42.35 107.362 42.35C103.932 42.35 101.237 40.74 101.237 37.31C101.237 33.04 104.597 32.165 109.112 31.465C111.667 31.08 113.452 30.835 113.452 28.875C113.452 26.845 111.982 25.69 109.392 25.69C106.452 25.69 104.982 26.95 104.877 29.68H102.147C102.252 26.18 104.562 23.555 109.357 23.555C113.207 23.555 116.042 24.99 116.042 29.295V37.905C116.042 39.375 116.392 40.18 117.967 39.83H118.072V41.895C117.722 42.035 117.267 42.175 116.532 42.175ZM107.992 40.18C111.772 40.18 113.487 37.415 113.487 35.315V32.235C112.542 32.83 110.897 33.285 109.357 33.565C106.522 34.09 104.247 34.58 104.247 37.24C104.247 39.655 106.137 40.18 107.992 40.18ZM124.302 42L117.967 23.905H121.012L124.757 35.385C125.282 36.995 125.947 39.2 125.947 39.2H126.017C126.017 39.2 126.682 36.96 127.207 35.385L131.022 23.905H133.962L127.452 42H124.302ZM149.653 42.175C147.798 42.175 146.818 41.335 146.538 39.48H146.503C145.418 40.88 143.563 42.35 140.483 42.35C137.053 42.35 134.358 40.74 134.358 37.31C134.358 33.04 137.718 32.165 142.233 31.465C144.788 31.08 146.573 30.835 146.573 28.875C146.573 26.845 145.103 25.69 142.513 25.69C139.573 25.69 138.103 26.95 137.998 29.68H135.268C135.373 26.18 137.683 23.555 142.478 23.555C146.328 23.555 149.163 24.99 149.163 29.295V37.905C149.163 39.375 149.513 40.18 151.088 39.83H151.193V41.895C150.843 42.035 150.388 42.175 149.653 42.175ZM141.113 40.18C144.893 40.18 146.608 37.415 146.608 35.315V32.235C145.663 32.83 144.018 33.285 142.478 33.565C139.643 34.09 137.368 34.58 137.368 37.24C137.368 39.655 139.258 40.18 141.113 40.18ZM162.804 42.49C155.769 42.49 152.409 38.57 152.129 33.53H155.209C155.629 37.765 158.219 39.97 162.944 39.97C166.409 39.97 168.894 38.395 168.894 35.28C168.894 31.85 165.884 31.045 161.404 30.065C156.994 29.085 153.214 27.825 153.214 23.1C153.214 18.97 156.644 16.485 161.719 16.485C167.984 16.485 170.574 19.67 171.204 24.29H168.229C167.774 20.72 165.464 18.935 161.789 18.935C158.394 18.935 156.154 20.37 156.154 22.96C156.154 25.795 158.954 26.635 162.699 27.37C167.564 28.35 172.009 29.54 172.009 35.175C172.009 39.865 168.194 42.49 162.804 42.49ZM182.929 42.49C177.539 42.49 174.179 38.22 174.179 32.97C174.179 27.72 177.539 23.45 182.929 23.45C187.199 23.45 190.034 25.9 190.664 29.75H187.794C187.374 27.3 185.659 25.795 182.929 25.795C179.079 25.795 177.084 28.98 177.084 32.97C177.084 36.96 179.079 40.11 182.929 40.11C185.869 40.11 187.619 38.43 187.864 35.63H190.664C190.279 39.97 187.444 42.49 182.929 42.49ZM196.178 23.905V26.915H196.248C197.333 25.165 199.223 23.695 201.638 23.695C202.163 23.695 202.443 23.765 202.793 23.905V26.635H202.688C202.268 26.495 201.988 26.46 201.428 26.46C198.628 26.46 196.178 28.56 196.178 31.955V42H193.343V23.905H196.178ZM205.34 42V23.905H208.175V42H205.34ZM205.34 20.475V16.975H208.175V20.475H205.34ZM212.039 47.81V23.905H214.874V26.46H214.944C216.309 24.605 218.129 23.485 220.754 23.485C225.339 23.485 228.524 26.985 228.524 33.005C228.524 38.815 225.549 42.525 220.649 42.525C218.199 42.525 216.449 41.79 214.944 39.865H214.874V47.81H212.039ZM220.439 40.145C223.904 40.145 225.619 37.135 225.619 33.04C225.619 28.98 223.904 25.9 220.474 25.9C216.519 25.9 214.699 29.12 214.699 33.04C214.699 36.96 216.274 40.145 220.439 40.145ZM229.683 26.215V23.905H232.308V18.2H235.143V23.905H238.643V26.215H235.143V37.975C235.143 39.235 235.808 39.655 236.963 39.655C237.523 39.655 238.153 39.515 238.468 39.41H238.573V41.86C237.908 42 237.138 42.105 236.298 42.105C233.988 42.105 232.308 41.16 232.308 38.605V26.215H229.683Z" fill="white"/>
<defs>
<clipPath id="clip0_60_192">
<rect width="60" height="60" fill="white" transform="translate(0 1)"/>
</clipPath>
</defs>
</svg>
