<svg width="143" height="29" viewBox="0 0 143 29" fill="none" xmlns="http://www.w3.org/2000/svg">
<g clip-path="url(#clip0_60_201)">
<path d="M95.0761 0.0078125H119.934V4.61646H110.063V28.7846H105.128V4.61646H95.0761V0.0078125ZM54.0701 0.0078125V4.61646H34.1114V12.0193H50.1872V16.5917H34.1114V24.2123H54.0701V28.7846H29.2124V0.0078125H54.1426H54.0701ZM66.517 0.0078125H60.0577L83.2098 28.8209H89.7054L78.0931 14.4144L89.7054 0.0441011H83.2098L74.8634 10.4226L66.517 0.0441011V0.0078125ZM73.1578 20.5834L69.8919 16.5917L60.0577 28.8209H66.517L73.1578 20.5834Z" fill="white"/>
<path d="M29.3937 28.7846L6.16905 0.0078125H0V28.7846H4.93524V6.17687L23.1521 28.7846H29.3937ZM121.059 28.6395C120.696 28.6395 120.405 28.4943 120.151 28.2766C119.897 28.0589 119.752 27.696 119.752 27.3331C119.752 26.9702 119.861 26.6799 120.115 26.4259C120.369 26.1719 120.696 26.063 121.059 26.063C121.422 26.063 121.712 26.1719 121.966 26.4259C122.178 26.6198 122.316 26.8819 122.356 27.1668C122.396 27.4517 122.335 27.7416 122.184 27.9863C122.07 28.1765 121.911 28.3357 121.721 28.4497C121.531 28.5637 121.316 28.6289 121.095 28.6395H121.059ZM129.478 16.4828H131.655V24.938C131.655 25.7001 131.51 26.3896 131.183 26.9339C130.856 27.4816 130.377 27.9228 129.804 28.204C129.224 28.4943 128.534 28.6758 127.736 28.6758C127.01 28.6758 126.393 28.5306 125.812 28.3129C125.232 28.0952 124.796 27.6597 124.47 27.1517C124.143 26.6799 123.962 26.063 123.962 25.3372H126.139C126.175 25.6275 126.248 25.9178 126.393 26.1356C126.538 26.3533 126.756 26.571 126.974 26.6799C127.228 26.8251 127.518 26.8613 127.845 26.8613C128.207 26.8613 128.498 26.7888 128.716 26.6436C128.972 26.4907 129.174 26.2626 129.296 25.9904C129.405 25.7001 129.478 25.3372 129.478 24.9018V16.5191V16.4828ZM140.691 19.7851C140.669 19.5434 140.592 19.31 140.466 19.1025C140.34 18.895 140.169 18.7189 139.965 18.5876C139.497 18.3001 138.953 18.161 138.405 18.1884C137.933 18.1884 137.534 18.261 137.207 18.3698C136.88 18.515 136.626 18.7327 136.481 18.9504C136.317 19.1521 136.218 19.3994 136.198 19.6591C136.179 19.9187 136.24 20.178 136.372 20.402C136.481 20.5834 136.626 20.7286 136.844 20.8374L137.497 21.2003L138.223 21.3818L139.384 21.6721C139.856 21.7809 140.292 21.9261 140.727 22.1075C141.143 22.2692 141.534 22.4892 141.888 22.7607C142.238 23.0442 142.519 23.4043 142.707 23.8133C142.896 24.2223 142.988 24.6692 142.977 25.1195C142.977 25.8453 142.795 26.4622 142.433 26.9702C142.033 27.5376 141.479 27.9784 140.836 28.2403C140.183 28.5306 139.348 28.6758 138.368 28.6758C137.425 28.6758 136.59 28.5306 135.901 28.2403C135.175 27.95 134.667 27.5145 134.268 26.9702C133.864 26.3695 133.649 25.6618 133.651 24.938H135.828C135.841 25.3135 135.97 25.6758 136.197 25.9748C136.425 26.2738 136.74 26.4948 137.098 26.6073C137.461 26.7525 137.897 26.8251 138.332 26.8251C138.804 26.8251 139.239 26.7525 139.602 26.6073C139.965 26.4622 140.255 26.2444 140.473 25.9904C140.661 25.7392 140.763 25.4336 140.763 25.1195C140.763 24.7929 140.691 24.5389 140.509 24.3211C140.276 24.1231 140.02 23.9527 139.747 23.8131L138.586 23.4502L137.207 23.0873C136.191 22.8333 135.393 22.4704 134.812 21.9261C134.522 21.6677 134.294 21.348 134.143 20.9902C133.992 20.6324 133.923 20.2455 133.941 19.8577C133.935 19.2004 134.153 18.5608 134.558 18.0432C134.948 17.4812 135.489 17.041 136.118 16.7731C136.844 16.4828 137.57 16.3377 138.441 16.3377C139.275 16.3377 140.038 16.4828 140.691 16.7731C141.344 17.0634 141.852 17.4989 142.251 18.0069C142.614 18.515 142.795 19.0956 142.795 19.8214H140.691V19.7851Z" fill="white"/>
</g>
<defs>
<clipPath id="clip0_60_201">
<rect width="143" height="28.8288" fill="white"/>
</clipPath>
</defs>
</svg>
