<svg width="225" height="46" viewBox="0 0 225 46" fill="none" xmlns="http://www.w3.org/2000/svg">
<g clip-path="url(#clip0_60_201)">
<path d="M149.595 0.0124512H188.707V7.26382H173.176V45.2907H165.411V7.26382H149.595V0.0124512ZM85.0751 0.0124512V7.26382H53.6715V18.9117H78.9657V26.106H53.6715V38.0964H85.0751V45.2907H45.9634V0.0124512H85.1893H85.0751ZM104.659 0.0124512H94.4961L130.924 45.3478H141.145L122.874 22.6801L141.145 0.0695485H130.924L117.792 16.3994L104.659 0.0695485V0.0124512ZM115.108 32.3867L109.97 26.106L94.4961 45.3478H104.659L115.108 32.3867Z" fill="white"/>
<path d="M46.2489 45.2909L9.70655 0.0126953H0V45.2909H7.76524V9.71925L36.4281 45.2909H46.2489ZM190.477 45.0625C189.906 45.0625 189.449 44.8341 189.049 44.4916C188.65 44.149 188.421 43.578 188.421 43.007C188.421 42.436 188.593 41.9793 188.992 41.5796C189.392 41.1799 189.906 41.0086 190.477 41.0086C191.048 41.0086 191.505 41.1799 191.904 41.5796C192.239 41.8847 192.456 42.2971 192.518 42.7454C192.581 43.1937 192.485 43.6498 192.247 44.0348C192.068 44.3341 191.818 44.5846 191.52 44.7639C191.221 44.9432 190.882 45.0458 190.534 45.0625H190.477ZM203.723 25.9349H207.149V39.2386C207.149 40.4376 206.921 41.5225 206.407 42.3789C205.892 43.2407 205.138 43.9348 204.237 44.3774C203.324 44.8341 202.239 45.1196 200.983 45.1196C199.841 45.1196 198.87 44.8912 197.957 44.5486C197.043 44.2061 196.358 43.5209 195.844 42.7215C195.33 41.9793 195.045 41.0086 195.045 39.8667H198.47C198.528 40.3234 198.642 40.7802 198.87 41.1228C199.099 41.4654 199.441 41.808 199.784 41.9793C200.183 42.2077 200.64 42.2648 201.154 42.2648C201.725 42.2648 202.182 42.1506 202.524 41.9222C202.927 41.6816 203.246 41.3227 203.438 40.8944C203.609 40.4376 203.723 39.8667 203.723 39.1815V25.992V25.9349ZM221.367 31.1308C221.332 30.7506 221.211 30.3833 221.013 30.0568C220.815 29.7303 220.546 29.4532 220.225 29.2466C219.488 28.7943 218.632 28.5753 217.769 28.6185C217.027 28.6185 216.399 28.7327 215.885 28.904C215.371 29.1324 214.972 29.4749 214.743 29.8175C214.484 30.1348 214.329 30.524 214.298 30.9325C214.267 31.341 214.363 31.7491 214.572 32.1014C214.743 32.3869 214.972 32.6153 215.314 32.7866L216.342 33.3576L217.484 33.6431L219.311 34.0998C220.053 34.2711 220.738 34.4995 221.424 34.785C222.078 35.0394 222.693 35.3855 223.251 35.8128C223.802 36.2588 224.242 36.8254 224.539 37.4689C224.836 38.1124 224.982 38.8156 224.964 39.5241C224.964 40.666 224.678 41.6367 224.107 42.436C223.478 43.3287 222.606 44.0223 221.595 44.4345C220.567 44.8912 219.254 45.1196 217.712 45.1196C216.228 45.1196 214.915 44.8912 213.83 44.4345C212.688 43.9777 211.888 43.2925 211.26 42.436C210.625 41.4909 210.287 40.3774 210.29 39.2386H213.715C213.736 39.8294 213.939 40.3994 214.297 40.8699C214.655 41.3403 215.15 41.6881 215.714 41.8651C216.285 42.0935 216.97 42.2077 217.655 42.2077C218.397 42.2077 219.083 42.0935 219.654 41.8651C220.225 41.6367 220.681 41.2941 221.024 40.8944C221.32 40.4991 221.481 40.0182 221.481 39.5241C221.481 39.0102 221.367 38.6105 221.081 38.2679C220.713 37.9564 220.311 37.6881 219.882 37.4686L218.055 36.8976L215.885 36.3266C214.286 35.9269 213.03 35.356 212.117 34.4995C211.661 34.0929 211.301 33.5898 211.064 33.0269C210.827 32.4639 210.719 31.8552 210.746 31.245C210.737 30.2109 211.08 29.2044 211.717 28.3901C212.331 27.5059 213.182 26.8131 214.172 26.3917C215.314 25.9349 216.456 25.7065 217.826 25.7065C219.14 25.7065 220.339 25.9349 221.367 26.3917C222.394 26.8485 223.194 27.5336 223.822 28.333C224.393 29.1324 224.678 30.0459 224.678 31.1879H221.367V31.1308Z" fill="white"/>
</g>
<defs>
<clipPath id="clip0_60_201">
<rect width="225" height="45.36" fill="white"/>
</clipPath>
</defs>
</svg>
