<svg width="184" height="52" viewBox="0 0 184 52" fill="none" xmlns="http://www.w3.org/2000/svg">
<g clip-path="url(#clip0_60_196)">
<path d="M168.928 18.5088C168.482 18.5088 168.048 18.601 167.664 18.8183L155.511 25.8365C154.725 26.2898 154.247 27.1455 154.247 28.056V42.0669C154.247 42.9768 154.725 43.8314 155.511 44.2857L158.685 46.1179C160.227 46.8778 160.796 46.866 161.497 46.866C163.78 46.866 165.084 45.4807 165.084 43.0732V29.2427C165.084 29.0472 164.915 28.9074 164.723 28.9074H163.201C163.005 28.9074 162.839 29.0472 162.839 29.2427V43.0732C162.839 44.1401 161.728 45.2135 159.924 44.3115L156.621 42.3764C156.504 42.313 156.414 42.2007 156.414 42.0669V28.0556C156.414 27.9229 156.503 27.7877 156.621 27.7203L168.748 20.7283C168.803 20.6963 168.865 20.6794 168.929 20.6794C168.992 20.6794 169.054 20.6963 169.109 20.7283L181.237 27.7207C181.352 27.7902 181.443 27.919 181.443 28.0563V42.0673C181.443 42.2011 181.376 42.3381 181.262 42.4026L169.109 49.395C169.005 49.457 168.862 49.457 168.748 49.395L165.626 47.5373C165.578 47.5116 165.525 47.4981 165.471 47.4981C165.417 47.4981 165.364 47.5116 165.316 47.5373C164.455 48.0258 164.293 48.0824 163.484 48.3629C163.285 48.4325 162.983 48.5404 163.587 48.8793L167.664 51.2785C168.049 51.5002 168.485 51.6161 168.929 51.6141C169.372 51.6169 169.809 51.5012 170.193 51.2788L182.346 44.2861C183.133 43.8288 183.61 42.9771 183.61 42.0673V28.056C183.61 27.1458 183.133 26.2916 182.346 25.8372L170.193 18.819C169.812 18.6013 169.375 18.5091 168.929 18.5091L168.928 18.5088Z" fill="#83CD29"/>
<path d="M172.18 28.5205C168.719 28.5205 166.658 29.9934 166.658 32.4427C166.658 35.0994 168.703 35.8296 172.025 36.1581C175.999 36.5472 176.308 37.1306 176.308 37.9128C176.308 39.2694 175.226 39.8479 172.67 39.8479C169.458 39.8479 168.752 39.046 168.516 37.4484C168.488 37.2769 168.356 37.1385 168.18 37.1385H166.606C166.413 37.1385 166.245 37.3056 166.245 37.5C166.245 39.5452 167.358 41.9638 172.67 41.9638C176.516 41.9638 178.734 40.4543 178.734 37.8095C178.734 35.188 176.942 34.484 173.212 33.9909C169.443 33.4921 169.083 33.2478 169.083 32.3653C169.083 31.6366 169.388 30.6618 172.18 30.6618C174.673 30.6618 175.595 31.1998 175.973 32.8813C176.006 33.0391 176.145 33.165 176.308 33.165H177.882C177.979 33.165 178.073 33.1055 178.14 33.0359C178.206 32.9617 178.253 32.8781 178.243 32.7781C178 29.8825 176.069 28.5205 172.18 28.5205Z" fill="#83CD29"/>
<path d="M97.4807 0.137374C97.3448 0.137464 97.2113 0.172936 97.0934 0.240298C96.9761 0.308891 96.8788 0.406842 96.811 0.524498C96.7431 0.642155 96.7071 0.775459 96.7064 0.911277V20.6505C96.7064 20.8441 96.6164 21.0177 96.4486 21.1149C96.3663 21.1628 96.2728 21.188 96.1776 21.188C96.0824 21.188 95.9889 21.1628 95.9067 21.1149L92.6813 19.2572C92.446 19.1211 92.179 19.0494 91.9072 19.0494C91.6354 19.0494 91.3684 19.1211 91.1331 19.2572L78.2575 26.6882C77.7763 26.9661 77.4836 27.5001 77.4836 28.056V42.9183C77.4836 43.4734 77.7766 43.982 78.2575 44.2599L91.1331 51.6912C91.3682 51.8277 91.6353 51.8996 91.9072 51.8996C92.1791 51.8996 92.4461 51.8277 92.6813 51.6912L105.557 44.2599C105.793 44.1242 105.988 43.9287 106.124 43.6931C106.26 43.4576 106.332 43.1903 106.331 42.9183V5.86562C106.331 5.58726 106.257 5.31398 106.116 5.07368C105.976 4.83338 105.774 4.63467 105.531 4.49784L97.8676 0.214477C97.7475 0.147415 97.6141 0.135581 97.4807 0.137374ZM14.6536 18.6895C14.4083 18.6992 14.1774 18.7423 13.9572 18.8699L1.08128 26.3013C0.845423 26.4368 0.6496 26.6322 0.513683 26.8679C0.377765 27.1035 0.306591 27.3708 0.30738 27.6429L0.3332 47.589C0.3332 47.8662 0.47629 48.124 0.720152 48.2596C0.837065 48.3298 0.970889 48.367 1.10728 48.367C1.24368 48.367 1.3775 48.3298 1.49441 48.2596L9.13196 43.8733C9.61574 43.5857 9.93168 43.0858 9.93168 42.5314V33.2165C9.93168 32.6607 10.224 32.1507 10.7059 31.8746L13.9568 29.9911C14.1919 29.8544 14.4592 29.7831 14.7311 29.7845C14.9965 29.7845 15.269 29.8509 15.505 29.9911L18.7563 31.8746C18.9923 32.01 19.1884 32.2054 19.3244 32.4412C19.4604 32.6769 19.5315 32.9444 19.5305 33.2165V42.531C19.5305 43.0854 19.8497 43.5889 20.3302 43.873L27.9678 48.2596C28.0847 48.3298 28.2185 48.367 28.3549 48.367C28.4913 48.367 28.6251 48.3298 28.7421 48.2596C28.8597 48.1915 28.9575 48.0937 29.0254 47.9759C29.0934 47.8581 29.1292 47.7246 29.1294 47.5886L29.1545 27.6429C29.156 27.3707 29.0851 27.103 28.9491 26.8673C28.8132 26.6315 28.6169 26.4362 28.3806 26.3013L15.505 18.8699C15.2873 18.7423 15.0557 18.6996 14.8086 18.6895H14.6536ZM130.353 18.8699C130.084 18.8699 129.821 18.9381 129.579 19.0765L116.704 26.5078C116.468 26.6434 116.272 26.8389 116.136 27.0745C116 27.3101 115.929 27.5774 115.93 27.8494V42.7117C115.93 43.2708 116.244 43.7772 116.729 44.0537L129.502 51.3301C129.973 51.5991 130.549 51.6195 131.024 51.3552L138.765 47.0464C139.011 46.9101 139.177 46.6555 139.178 46.3758C139.179 46.2396 139.144 46.1055 139.076 45.9875C139.008 45.8695 138.909 45.7719 138.791 45.7048L125.838 38.2734C125.595 38.135 125.425 37.8549 125.425 37.5766V32.9325C125.425 32.6546 125.597 32.4 125.838 32.2615L129.863 29.9391C129.981 29.871 130.114 29.8352 130.25 29.8352C130.386 29.8352 130.52 29.871 130.637 29.9391L134.662 32.2615C134.78 32.3293 134.878 32.427 134.946 32.5447C135.014 32.6625 135.05 32.7962 135.049 32.9322V36.5962C135.049 36.7322 135.085 36.8658 135.153 36.9836C135.221 37.1014 135.318 37.1991 135.436 37.2668C135.678 37.4063 135.97 37.4067 136.21 37.2668L143.926 32.778C144.161 32.6418 144.356 32.4461 144.492 32.2106C144.628 31.975 144.7 31.7079 144.7 31.436V27.8498C144.7 27.2957 144.406 26.7861 143.926 26.5078L131.128 19.0765C130.892 18.9404 130.625 18.8689 130.353 18.8699ZM91.8554 29.9653C91.9228 29.9653 92.0017 29.9818 92.0619 30.0166L96.4744 32.571C96.5942 32.6402 96.681 32.7683 96.681 32.9063V38.0152C96.681 38.154 96.5949 38.2817 96.4744 38.3509L92.0619 40.9054C92.003 40.939 91.9363 40.9567 91.8684 40.9567C91.8006 40.9567 91.7339 40.939 91.675 40.9054L87.2629 38.3509C87.1427 38.2813 87.0563 38.154 87.0563 38.0152V32.9063C87.0563 32.7679 87.1431 32.641 87.2629 32.571L91.675 30.0169C91.7292 29.9832 91.7918 29.9654 91.8557 29.9656L91.8554 29.9653Z" fill="#404137"/>
<path d="M53.3319 18.7925C53.0637 18.7925 52.7983 18.8606 52.558 18.9991L39.6825 26.4046C39.2008 26.6818 38.9082 27.2168 38.9082 27.772V42.6343C38.9082 43.1902 39.2012 43.698 39.6825 43.9763L52.558 51.4072C52.7931 51.5438 53.0602 51.6158 53.3321 51.6158C53.604 51.6158 53.8711 51.5438 54.1062 51.4072L66.9817 43.9763C67.2175 43.8405 67.4132 43.6449 67.549 43.4093C67.6849 43.1737 67.7562 42.9063 67.7557 42.6343V27.772C67.7557 27.2161 67.463 26.6818 66.9817 26.4046L54.1062 18.9991C53.8708 18.8631 53.6037 18.7919 53.3319 18.7925ZM130.327 32.0554C130.276 32.0554 130.219 32.0554 130.173 32.0812L127.696 33.5261C127.65 33.5517 127.611 33.5891 127.584 33.6344C127.557 33.6797 127.542 33.7314 127.541 33.7843V36.6224C127.541 36.7293 127.603 36.8272 127.696 36.8806L130.173 38.2997C130.266 38.3535 130.365 38.3535 130.457 38.2997L132.934 36.8802C132.98 36.8544 133.018 36.8171 133.045 36.7719C133.072 36.7267 133.087 36.6751 133.088 36.6224V33.7839C133.087 33.7312 133.072 33.6797 133.045 33.6344C133.018 33.5892 132.98 33.5519 132.934 33.5261L130.457 32.0808C130.411 32.0539 130.379 32.0554 130.327 32.0554Z" fill="#83CD29"/>
</g>
<defs>
<clipPath id="clip0_60_196">
<rect width="183.616" height="52" fill="white"/>
</clipPath>
</defs>
</svg>
