<svg width="211" height="62" viewBox="0 0 211 62" fill="none" xmlns="http://www.w3.org/2000/svg">
<path fill-rule="evenodd" clip-rule="evenodd" d="M46.4382 21.9132C47.4989 17.734 48.8322 9.98402 44.132 7.35655C39.4537 4.74053 33.3658 9.7533 30.1511 12.7622C26.9458 9.78329 20.6868 4.79194 15.9906 7.42776C11.3141 10.0526 12.7562 17.674 13.8404 21.8794C9.47808 23.0807 2 25.6682 2 30.9548C2 36.2264 9.4703 39.0415 13.8068 40.2417C12.7186 44.4704 11.3487 51.9829 16.0311 54.6019C20.7449 57.2372 26.9844 52.3647 30.2289 49.3229C33.4642 52.3495 39.4936 57.2539 44.1729 54.6276C48.8668 51.9931 47.6443 44.347 46.5599 40.1172C50.7637 38.9144 58.25 36.1606 58.25 30.9548C58.25 25.7191 50.7318 23.1106 46.4382 21.9132ZM45.9054 37.8756C45.1934 35.6905 44.2325 33.3668 43.0571 30.9664C44.1791 28.6227 45.1027 26.329 45.7948 24.1579C48.9423 25.0427 55.8472 27.0649 55.8472 30.9548C55.8472 34.8812 49.2211 36.9226 45.9054 37.8756ZM42.9688 52.6112C39.4775 54.5706 34.2914 49.8805 31.9021 47.6517C33.4872 45.9707 35.0713 44.0166 36.6172 41.8467C39.3367 41.6129 41.9056 41.2304 44.2355 40.7082C44.9986 43.7001 46.4754 50.6431 42.9688 52.6112ZM17.2318 52.5833C13.7402 50.6312 15.3361 43.9274 16.1367 40.8124C18.4406 41.3067 20.9911 41.6622 23.717 41.8765C25.2731 43.9997 26.903 45.9514 28.5455 47.6607C26.5162 49.564 20.7397 54.5444 17.2318 52.5833ZM4.40279 30.9548C4.40279 27.0137 11.2664 25.0062 14.4857 24.1236C15.1897 26.3434 16.113 28.6645 17.2273 31.0116C16.0986 33.3936 15.1621 35.7514 14.4516 37.9975C11.3819 37.1455 4.40279 34.8983 4.40279 30.9548ZM17.1944 9.44414C20.7003 7.47655 26.1401 12.2684 28.4673 14.4252C26.8333 16.1266 25.2183 18.0636 23.6756 20.1747C21.0301 20.4124 18.4977 20.7942 16.1695 21.3057C15.2961 17.9138 13.6923 11.4096 17.1944 9.44414ZM38.3362 22.7071C40.1309 22.9266 41.8505 23.2187 43.4651 23.5761C42.9804 25.0825 42.3762 26.6577 41.6647 28.2724C40.6332 26.3749 39.5261 24.5155 38.3362 22.7071ZM30.1518 16.0902C31.2601 17.2543 32.3701 18.5543 33.4621 19.9647C31.2472 19.8631 29.0287 19.8627 26.8138 19.9632C27.9067 18.5659 29.0262 17.2678 30.1518 16.0902ZM18.6059 28.2707C17.9062 26.6616 17.3075 25.0795 16.8185 23.5516C18.4235 23.2034 20.135 22.9187 21.9181 22.7027C20.7249 24.5072 19.6196 26.3659 18.6059 28.2707ZM21.9693 39.3732C20.1273 39.1739 18.3899 38.9037 16.7854 38.5651C17.2821 37.0103 17.894 35.3941 18.6087 33.7502C19.6362 35.6749 20.7584 37.5516 21.9693 39.3732ZM30.2184 45.9841C29.0795 44.7925 27.9434 43.4746 26.834 42.0571C29.0615 42.1418 31.2933 42.142 33.5206 42.0456C32.4253 43.489 31.3192 44.8088 30.2184 45.9841ZM41.6876 33.6666C42.4394 35.3282 43.0732 36.9357 43.5766 38.4642C41.9456 38.8251 40.1847 39.1157 38.3294 39.3316C39.5281 37.4888 40.6529 35.6005 41.6876 33.6666ZM35.2762 39.6139C31.8689 39.85 28.4405 39.8474 25.0321 39.6332C23.0954 36.8903 21.3714 34.0056 19.8832 31.0109C21.3643 28.0223 23.0758 25.1432 25.0033 22.4046C28.4141 22.1547 31.8459 22.1539 35.2567 22.4061C37.1677 25.1446 38.8766 28.0161 40.3919 30.9777C38.8946 33.9647 37.1741 36.8496 35.2762 39.6139ZM42.9318 9.37487C46.4386 11.336 44.8777 18.3011 44.1116 21.3299C41.7779 20.8077 39.2437 20.4192 36.5906 20.1777C35.0448 18.0438 33.4434 16.1035 31.8357 14.424C34.1928 12.2208 39.4589 7.43292 42.9318 9.37487Z" fill="#53C1DE"/>
<path d="M35.0229 30.9542C35.0229 28.2311 32.7742 26.0232 30 26.0232C27.2261 26.0232 24.9771 28.2311 24.9771 30.9542C24.9771 33.6777 27.2261 35.8854 30 35.8854C32.7742 35.8854 35.0229 33.6777 35.0229 30.9542Z" fill="#53C1DE"/>
<path d="M84.345 42V16.975H96.035C100.445 16.975 103.42 19.74 103.42 23.835C103.42 26.88 102.09 29.05 99.08 30.03V30.135C101.635 31.045 102.44 32.795 102.685 36.505C102.965 40.53 103.385 41.545 103.84 41.86V42H100.445C99.92 41.545 99.815 40.6 99.535 36.4C99.29 32.725 97.82 31.43 94.46 31.43H87.495V42H84.345ZM87.495 19.705V28.875H94.915C98.415 28.875 100.165 27.125 100.165 24.29C100.165 21.245 98.765 19.705 95.09 19.705H87.495ZM114.389 42.49C108.859 42.49 105.639 38.22 105.639 32.97C105.639 27.72 109.069 23.45 114.214 23.45C119.639 23.45 122.544 27.65 122.544 33.635H108.544C108.754 37.31 110.749 40.11 114.389 40.11C117.014 40.11 118.764 38.85 119.394 36.4H122.159C121.319 40.285 118.484 42.49 114.389 42.49ZM114.214 25.69C110.854 25.69 109.034 28.21 108.614 31.5H119.499C119.324 27.895 117.469 25.69 114.214 25.69ZM139.527 42.175C137.672 42.175 136.692 41.335 136.412 39.48H136.377C135.292 40.88 133.437 42.35 130.357 42.35C126.927 42.35 124.232 40.74 124.232 37.31C124.232 33.04 127.592 32.165 132.107 31.465C134.662 31.08 136.447 30.835 136.447 28.875C136.447 26.845 134.977 25.69 132.387 25.69C129.447 25.69 127.977 26.95 127.872 29.68H125.142C125.247 26.18 127.557 23.555 132.352 23.555C136.202 23.555 139.037 24.99 139.037 29.295V37.905C139.037 39.375 139.387 40.18 140.962 39.83H141.067V41.895C140.717 42.035 140.262 42.175 139.527 42.175ZM130.987 40.18C134.767 40.18 136.482 37.415 136.482 35.315V32.235C135.537 32.83 133.892 33.285 132.352 33.565C129.517 34.09 127.242 34.58 127.242 37.24C127.242 39.655 129.132 40.18 130.987 40.18ZM150.893 42.49C145.503 42.49 142.143 38.22 142.143 32.97C142.143 27.72 145.503 23.45 150.893 23.45C155.163 23.45 157.998 25.9 158.628 29.75H155.758C155.338 27.3 153.623 25.795 150.893 25.795C147.043 25.795 145.048 28.98 145.048 32.97C145.048 36.96 147.043 40.11 150.893 40.11C153.833 40.11 155.583 38.43 155.828 35.63H158.628C158.243 39.97 155.408 42.49 150.893 42.49ZM160.153 26.215V23.905H162.778V18.2H165.613V23.905H169.113V26.215H165.613V37.975C165.613 39.235 166.278 39.655 167.433 39.655C167.993 39.655 168.623 39.515 168.938 39.41H169.043V41.86C168.378 42 167.608 42.105 166.768 42.105C164.458 42.105 162.778 41.16 162.778 38.605V26.215H160.153ZM171.997 42V38.535H175.392V42H171.997ZM177.854 47.145C177.224 47.145 176.734 47.075 176.279 47.005V44.695H176.349C176.699 44.765 177.014 44.8 177.329 44.8C178.554 44.8 179.184 44.275 179.184 43.05V23.905H182.019V43.19C182.019 46.55 180.164 47.145 177.854 47.145ZM179.184 20.475V16.975H182.019V20.475H179.184ZM192.743 42.525C187.773 42.525 185.008 40.18 184.728 36.12H187.633C188.018 39.27 190.118 40.145 192.813 40.145C195.788 40.145 197.013 38.85 197.013 37.17C197.013 35.14 195.613 34.615 192.288 33.915C188.718 33.18 185.533 32.445 185.533 28.49C185.533 25.48 187.843 23.52 192.043 23.52C196.523 23.52 198.728 25.655 199.148 29.19H196.243C195.963 26.81 194.668 25.76 191.973 25.76C189.383 25.76 188.333 26.915 188.333 28.35C188.333 30.31 190.083 30.695 193.198 31.325C196.838 32.06 199.883 32.865 199.883 37.03C199.883 40.67 196.908 42.525 192.743 42.525Z" fill="#8D8C95"/>
</svg>
