<svg width="249" height="62" viewBox="0 0 249 62" fill="none" xmlns="http://www.w3.org/2000/svg">
<g clip-path="url(#clip0_60_200)">
<path d="M13.125 25.75C14.875 18.75 19.25 15.25 26.25 15.25C36.75 15.25 38.0625 23.125 43.3125 24.4375C46.8125 25.3125 49.875 24 52.5 20.5C50.75 27.5 46.375 31 39.375 31C28.875 31 27.5625 23.125 22.3125 21.8125C18.8125 20.9375 15.75 22.25 13.125 25.75ZM0 41.5C1.75 34.5 6.125 31 13.125 31C23.625 31 24.9375 38.875 30.1875 40.1875C33.6875 41.0625 36.75 39.75 39.375 36.25C37.625 43.25 33.25 46.75 26.25 46.75C15.75 46.75 14.4375 38.875 9.1875 37.5625C5.6875 36.6875 2.625 38 0 41.5Z" fill="#44A8B3"/>
</g>
<path d="M68.77 19.74V16.975H88.58V19.74H80.25V42H77.1V19.74H68.77ZM101.464 42.175C99.6091 42.175 98.6291 41.335 98.3491 39.48H98.3141C97.2291 40.88 95.3741 42.35 92.2941 42.35C88.8641 42.35 86.1691 40.74 86.1691 37.31C86.1691 33.04 89.5291 32.165 94.0441 31.465C96.5991 31.08 98.3841 30.835 98.3841 28.875C98.3841 26.845 96.9141 25.69 94.3241 25.69C91.3841 25.69 89.9141 26.95 89.8091 29.68H87.0791C87.1841 26.18 89.4941 23.555 94.2891 23.555C98.1391 23.555 100.974 24.99 100.974 29.295V37.905C100.974 39.375 101.324 40.18 102.899 39.83H103.004V41.895C102.654 42.035 102.199 42.175 101.464 42.175ZM92.9241 40.18C96.7041 40.18 98.4191 37.415 98.4191 35.315V32.235C97.4741 32.83 95.8291 33.285 94.2891 33.565C91.4541 34.09 89.1791 34.58 89.1791 37.24C89.1791 39.655 91.0691 40.18 92.9241 40.18ZM105.096 42V23.905H107.931V42H105.096ZM105.096 20.475V16.975H107.931V20.475H105.096ZM111.9 42V16.975H114.735V42H111.9ZM122.654 42L116.914 23.905H119.959L123.144 35.07C123.564 36.575 124.124 38.955 124.124 38.955H124.194C124.194 38.955 124.719 36.575 125.104 35.14L128.149 23.905H131.124L134.064 35.14C134.449 36.61 134.939 38.955 134.939 38.955H135.009C135.009 38.955 135.569 36.575 136.024 35.07L139.384 23.905H142.324L136.409 42H133.504L130.494 31.045C130.074 29.54 129.619 27.265 129.619 27.265H129.549C129.549 27.265 129.059 29.54 128.639 31.045L125.594 42H122.654ZM144.403 42V23.905H147.238V42H144.403ZM144.403 20.475V16.975H147.238V20.475H144.403ZM153.937 23.905V26.285H154.007C155.302 24.57 157.122 23.485 159.747 23.485C163.527 23.485 165.837 25.55 165.837 29.295V42H163.002V29.54C163.002 27.195 161.462 25.865 158.907 25.865C156.037 25.865 153.937 27.895 153.937 30.87V42H151.102V23.905H153.937ZM176.593 42.525C171.658 42.525 168.578 38.815 168.578 33.005C168.578 26.985 172.043 23.485 176.523 23.485C179.078 23.485 181.038 24.745 182.193 26.46H182.263V16.975H185.098V42H182.263V39.795H182.193C180.828 41.545 179.148 42.525 176.593 42.525ZM176.698 40.145C180.723 40.145 182.438 37.135 182.438 33.04C182.438 28.84 180.408 25.9 176.663 25.9C173.233 25.9 171.483 28.98 171.483 33.04C171.483 37.135 173.233 40.145 176.698 40.145ZM196.674 42.49C191.284 42.49 187.924 38.22 187.924 32.97C187.924 27.72 191.284 23.45 196.674 23.45C200.944 23.45 203.779 25.9 204.409 29.75H201.539C201.119 27.3 199.404 25.795 196.674 25.795C192.824 25.795 190.829 28.98 190.829 32.97C190.829 36.96 192.824 40.11 196.674 40.11C199.614 40.11 201.364 38.43 201.609 35.63H204.409C204.024 39.97 201.189 42.49 196.674 42.49ZM214.29 42.525C209.32 42.525 206.555 40.18 206.275 36.12H209.18C209.565 39.27 211.665 40.145 214.36 40.145C217.335 40.145 218.56 38.85 218.56 37.17C218.56 35.14 217.16 34.615 213.835 33.915C210.265 33.18 207.08 32.445 207.08 28.49C207.08 25.48 209.39 23.52 213.59 23.52C218.07 23.52 220.275 25.655 220.695 29.19H217.79C217.51 26.81 216.215 25.76 213.52 25.76C210.93 25.76 209.88 26.915 209.88 28.35C209.88 30.31 211.63 30.695 214.745 31.325C218.385 32.06 221.43 32.865 221.43 37.03C221.43 40.67 218.455 42.525 214.29 42.525ZM231.004 42.525C226.034 42.525 223.269 40.18 222.989 36.12H225.894C226.279 39.27 228.379 40.145 231.074 40.145C234.049 40.145 235.274 38.85 235.274 37.17C235.274 35.14 233.874 34.615 230.549 33.915C226.979 33.18 223.794 32.445 223.794 28.49C223.794 25.48 226.104 23.52 230.304 23.52C234.784 23.52 236.989 25.655 237.409 29.19H234.504C234.224 26.81 232.929 25.76 230.234 25.76C227.644 25.76 226.594 26.915 226.594 28.35C226.594 30.31 228.344 30.695 231.459 31.325C235.099 32.06 238.144 32.865 238.144 37.03C238.144 40.67 235.169 42.525 231.004 42.525Z" fill="#8D8C95"/>
<defs>
<clipPath id="clip0_60_200">
<rect width="60" height="31.5" fill="white" transform="translate(0 15.25)"/>
</clipPath>
</defs>
</svg>
