<svg width="153" height="54" viewBox="0 0 153 54" fill="none" xmlns="http://www.w3.org/2000/svg">
<g clip-path="url(#clip0_61_215)">
<path d="M41.4125 4.45435H51.6517L26.0536 48.611L0.455566 4.45435H10.5668H20.0381L26.0536 14.6936L31.9412 4.45435H41.4125Z" fill="#41B883"/>
<path d="M0.455566 4.45435L26.0536 48.611L51.6517 4.45435H41.4125L26.0536 30.9483L10.5668 4.45435H0.455566Z" fill="#41B883"/>
<path d="M10.5668 4.45435L26.0536 31.0763L41.4124 4.45435H31.9411L26.0536 14.6936L20.0381 4.45435H10.5668Z" fill="#35495E"/>
</g>
<path d="M76.5396 35.5327L69.1033 14.1797H72.0002L77.2563 30.0675C77.5848 31.0531 78.0925 32.9345 78.0925 32.9345H78.1522C78.1522 32.9345 78.6599 31.0232 78.9884 30.0675L84.1849 14.1797H86.9921L79.4961 35.5327H76.5396ZM100.278 35.5327H97.8588V33.4123H97.799C96.6941 34.9056 95.38 35.8911 93.1402 35.8911C89.9746 35.8911 87.9438 33.9798 87.9438 30.7843V20.0928H90.3628V30.7245C90.3628 32.7255 91.647 33.8902 93.8271 33.8902C96.276 33.8902 97.8588 32.0386 97.8588 29.5897V20.0928H100.278V35.5327ZM110.149 35.9508C105.43 35.9508 102.683 32.3074 102.683 27.8277C102.683 23.348 105.61 19.7046 110 19.7046C114.629 19.7046 117.107 23.2883 117.107 28.3951H105.162C105.341 31.5309 107.043 33.92 110.149 33.92C112.389 33.92 113.882 32.8449 114.42 30.7544H116.779C116.062 34.0694 113.643 35.9508 110.149 35.9508ZM110 21.6159C107.133 21.6159 105.58 23.7661 105.221 26.5734H114.509C114.36 23.4974 112.777 21.6159 110 21.6159ZM118.853 35.5327V32.5761H121.749V35.5327H118.853ZM123.85 39.9228C123.312 39.9228 122.894 39.8631 122.506 39.8033V37.8323H122.566C122.864 37.892 123.133 37.9219 123.402 37.9219C124.447 37.9219 124.985 37.4739 124.985 36.4286V20.0928H127.404V36.5481C127.404 39.4151 125.821 39.9228 123.85 39.9228ZM124.985 17.1661V14.1797H127.404V17.1661H124.985ZM136.554 35.9807C132.314 35.9807 129.954 33.9798 129.715 30.5155H132.194C132.523 33.2033 134.315 33.9499 136.614 33.9499C139.153 33.9499 140.198 32.8449 140.198 31.4114C140.198 29.6793 139.003 29.2313 136.166 28.634C133.12 28.0069 130.402 27.3797 130.402 24.0051C130.402 21.4367 132.373 19.7643 135.957 19.7643C139.78 19.7643 141.661 21.586 142.02 24.6023H139.541C139.302 22.5716 138.197 21.6756 135.897 21.6756C133.687 21.6756 132.791 22.6612 132.791 23.8856C132.791 25.558 134.285 25.8865 136.943 26.4241C140.049 27.0512 142.647 27.7381 142.647 31.292C142.647 34.3979 140.108 35.9807 136.554 35.9807Z" fill="#8D8C95"/>
<defs>
<clipPath id="clip0_61_215">
<rect width="51.1961" height="50.9828" fill="white" transform="translate(0.455566 1.04126)"/>
</clipPath>
</defs>
</svg>
